<?xml version="1.0" encoding="utf-8"?>
<!-- Generator: Adobe Illustrator 19.2.1, SVG Export Plug-In . SVG Version: 6.00 Build 0)  -->
<svg version="1.1" id="Ebene_1" xmlns="http://www.w3.org/2000/svg" xmlns:xlink="http://www.w3.org/1999/xlink" x="0px" y="0px"
	 viewBox="0 0 214 267.9" style="enable-background:new 0 0 214 267.9;" xml:space="preserve">
<style type="text/css">
	.st0{fill:#FFFFFF;}
	.st1{fill:#C20000;}
	.st2{fill:#FFE600;}
	.st3{fill:#F9B385;}
	.st4{fill:#C20000;stroke:#C20000;}
	.st5{fill:#231F20;}
</style>
<path class="st0" d="M107,267.9c-28.2,0-55.8-11.4-75.7-31.3C11.4,216.7,0,189.1,0,160.9V0l214,0v160.9c0,28.2-11.4,55.8-31.3,75.7
	C162.7,256.5,135.1,267.9,107,267.9z"/>
<path d="M107,267.9c-28.2,0-55.8-11.4-75.7-31.3C11.4,216.7,0,189.1,0,160.9V0l214,0v160.9c0,28.2-11.4,55.8-31.3,75.7
	C162.7,256.5,135.1,267.9,107,267.9z M4.8,4.8v156.1c0,26.9,10.9,53.3,29.9,72.3c19,19,45.3,29.9,72.3,29.9
	c26.9,0,53.2-10.9,72.3-29.9c19-19,29.9-45.3,29.9-72.3V4.8L4.8,4.8z"/>
<path class="st1" d="M182.9,50.7l9.3,19l-13,7.1L170,57.3L182.9,50.7z"/>
<path d="M164.4,79.5h7.8l6.6-3.8l-3.9-8.3l6.9-4.7l-0.9-2.2l-8.7,5"/>
<path d="M36.4,60.6l-7.9-7.5l-2.6,5.5l10.5,4.9 M47,70.5L38.6,54l-1.2,6.6L47,79.5 M39.4,62.6h-4c-1.6,2.9-3.5,5.7-4.4,8l8.4,1"/>
<path class="st2" d="M93.2,33.8c-0.6,1.3,3.4,0.4,3.9,1.8c0.5,1.4,4.5,27.9,4.5,27.9L99.3,66v6.4h11V35.3
	C105.2,34.9,101.1,31.8,93.2,33.8L93.2,33.8z"/>
<path class="st3" d="M93.6,34.1c-0.2,0-0.5,0.1-0.8,0.1c-7.4,3.2-3.6,10.4-5.9,21.5l2.4,0.5c0,2.4,0.4,3.9,0.7,6.8
	c6.6,0.6,10.4-0.2,10.9,0c1.7,1.5,4.3,6.9,4.3,6.9l0.5-0.2c0,0,0.9-24.4,0.2-26.4c-0.6-3.1-4.1-6-6.7-7.6
	C97.5,34.8,95.4,34,93.6,34.1z M28.5,53.1l-1.1,2c4,3.1,6.6,4.1,8.1,5.5L35,61.9c-2.1-1-7.1-4.3-8.2-4.9l-0.9,1.6
	c3.9,2.7,7.5,4.6,8.2,5.2c2.1,1.1,4.1,1.1,5.2,2.2v1.6c-2.9-0.6-4.8-2.4-6-1.6l-0.9,1.2c2.1,0,5.4,2.1,5.4,2.1L37.4,71
	c-2.5-0.9-2.7-1.6-5.6-2.2l-1,2.2l23,12.4l-0.1-12.3c-0.7-0.2-1.5-0.6-2.1-1c-3.6-2.2-1.6-6-2.1-7.2c0-0.2-7.9-6.8-10.9-8.9
	c-2.5,3.5,2.9,5.9,3.9,7.6c1.8,2.6-0.1,6.8,4.4,9.5l-0.1,2c-6.8-1.9-4.5-8.3-5.8-10.6c-1.2-1.5-2.2-2-4-3.2
	C33.7,57,31.6,55,28.5,53.1z M179,58.5c-0.2,0-0.6,0.1-1,0.3l-6.1,3.1c-2.5,1.5-4.2,2.4-4.2,2.4c-2.4,1.3,1.9,5.5-1.4,6.7
	c-1.5,0.6-2.9,1.2-3.9,1.5v13.2l14.5-8.8l-2.3-4.8c-1.1,3.4-2.9,4.5-6.1,5.1l-0.5-2c2.6-0.8,4.3-1.4,5-4.2c0.4-2.1-1-3.1-0.1-5
	c0.1-0.5,3.7-2.9,6.1-4.4c0.8-0.5,1.6-0.9,1.9-1.1C180.2,59.4,179.8,58.5,179,58.5L179,58.5z"/>
<path d="M99.7,33.1c5.7,2.7,6.5,3.8,8.7,6.7c1.3,2.6,1.2,5,1.2,15.4c0,6.7-0.6,13.1-0.5,13.4l-6.8,1.9c-0.6-0.2-1.8-3.3-2.9-4.6
	c-6,6.8-15.2,8.7-23.2,9.3c-4.6,0.6-17.7-2.1-23-4.4c0,0-0.3,86.6-0.3,126.4c7.3,0,12.7-2.3,16.9-9.1c1.1-1.3,2.3-3.8,2.3-15.3
	c0-12,0.1-57.4,0.1-57.4c0-2.8,1.9-6.5,4.9-9.3c2.3-2.2,4.1-3.1,7.2-3.9v94.2l48.1,0.2v-95.8c2.4,0.8,5.8,3.2,7.3,5.4
	c1.5,2.1,3.3,4.4,4.6,9.1c1.3,6,0.7,56.3,0.7,57.4c0,8-0.7,14.2,2.7,19.1c3,4.1,11.1,6.2,15.6,6.6V72.1c-9.3,3.1-20.3,4.3-28.8,2.6
	c-7.3-1.3-12.3-6.8-12.8-7.9c-3.8-7.7,13.9-5.8,21.5-5.8c-1-5.7-1.9-7.2-4-11.5c-4.2-7.2-7.9-10.4-14.7-13.4
	C118.5,33.9,105.7,33.2,99.7,33.1L99.7,33.1z"/>
<path class="st2" d="M110.2,91.1c8.6-0.2,15-3.4,18.6-7.1c2.1-2,4-3.9,4.8-6.8l-3.5-1.4c-0.6,2.2-1.8,3.4-3.5,5
	c-3.4,3.5-10.4,6.5-18.5,6.5c-6.8,0-12.8-2.2-16.5-4.8c-2.9-1.9-4.8-3.6-5.8-6.8l-3.4,1.6c1,3.6,3.8,6.2,7.1,8.4
	c4,2.8,9.2,5,16.1,5.2v35.4H86.4v4.2h19.2v63.6h4.5v-63.6h20.1v-4.2h-20L110.2,91.1L110.2,91.1z"/>
<path class="st4" d="M91.3,200.1c-1.3,0.4-1.9,4.3-3.4,6.2c-1.9,2.5-10.7,7.8-10.7,18.3c5.8-3.7,8.3-5.5,14.3-9.8
	c4.9-3.4,7-3.9,7.4-4.5v-10.2C99,200.1,91.3,200.1,91.3,200.1z M116,200.1c0.1,6.5,0,9.1,0.6,10.2c1.1,1.5,3.4,1.7,8.6,5.6
	c4.8,3.8,7.4,5.9,12.3,8.7c-0.9-11.7-3.6-10.9-7.9-15.8c-2.3-2.1-5.5-8.5-5.7-8.7C123.9,200.1,116,200.1,116,200.1z"/>
<g>
	<path class="st5" d="M102.2,42.5c0.1-2.2-0.4-2.5-2.4-4.5C99,40.4,99.4,41.3,102.2,42.5z M99.3,42.6c0.1-2.2,0.3-2.9-2-4.6
		C96.7,40.4,96.7,41.1,99.3,42.6z M96.4,42.4c0.2-2.3,0.8-2.6-2-4.6C93.8,40.1,93.9,41.3,96.4,42.4z M93.2,42.7
		c0.8-2,1.3-3.4-1.9-4.8C91,40.7,91.6,40.9,93.2,42.7z M93,48.4c3.4,1.8,3.6,1.8,6.9-0.4c-1-1.9-2.8-3.1-5-2.6
		c-1.3,0.6-1.8,1.4-1.9,2.7V48.4z"/>
</g>
</svg>
