<?xml version="1.0" encoding="utf-8"?>
<!-- Generator: Adobe Illustrator 19.2.0, SVG Export Plug-In . SVG Version: 6.00 Build 0)  -->
<svg version="1.1" id="Capa_1" xmlns="http://www.w3.org/2000/svg" xmlns:xlink="http://www.w3.org/1999/xlink" x="0px" y="0px"
	 viewBox="0 0 200 200" style="enable-background:new 0 0 200 200;" xml:space="preserve">
<g>
	<path d="M198.8,120.2l-35.3,66.9c-1.7,3.3-6.6,6.8-10.4,6.8l-141.7,0c-3,0-5.9-1.2-8-3.3c-2.1-2.1-3.3-5-3.3-8L0,72.6
		c0-6.2,5-11.3,11.3-11.3l10.4,0v9.6h-6.9c-1.4,0-2.7,0.5-3.6,1.5c-1,1-1.5,2.3-1.5,3.6l0,103.2c0,2.8,2.3,5.1,5.1,5.1h7.1
		l33.5-67.8c1.9-3.8,5.5-6.8,9.2-6.8h82l0-27.3c5.4,0.5,9.6,4.9,9.6,10.4v16.8h37.6C198.3,109.8,202,114.2,198.8,120.2z M28.2,150.2
		c-0.3-33.7,0-134.9,0-134.9c0-5.1,4.2-9.3,9.3-9.3h74.1c1.2,0,2.3,0.5,3.1,1.4l24,26c0.7,0.8,1.1,1.8,1.1,2.9v67.4H132V42.1
		c0-1.1-0.9-1.9-1.9-1.9h-18.3c-2.1,0-3.9-1.7-3.9-3.9V15.8c0-1.1-0.9-1.9-1.9-1.9H37.4c-0.8,0-1.5,0.7-1.5,1.5v126.4l-5.9,12
		C30,153.8,28.2,153.6,28.2,150.2z M115.6,32.4h11.5l-11.5-12.5L115.6,32.4L115.6,32.4z M119.8,48.1H48.2c-2.6,0-4.8,2.1-4.8,4.8
		c0,2.6,2.1,4.8,4.8,4.8h71.6c2.6,0,4.8-2.1,4.8-4.8C124.6,50.3,122.4,48.1,119.8,48.1z M124.6,80.8c0-2.6-2.1-4.8-4.8-4.8H48.2
		c-2.6,0-4.8,2.1-4.8,4.8c0,2.6,2.1,4.8,4.8,4.8h71.6C122.4,85.5,124.6,83.4,124.6,80.8z M43.4,108.8c0,2.6,2.1,4.8,4.8,4.8h1.7
		c3-8.4,10.5-9.6,10.5-9.6H48.2C45.5,104,43.4,106.2,43.4,108.8z"/>
</g>
</svg>
