<?xml version="1.0" encoding="utf-8"?>
<!-- Generator: Adobe Illustrator 19.2.0, SVG Export Plug-In . SVG Version: 6.00 Build 0)  -->
<svg version="1.1" id="Capa_1" xmlns="http://www.w3.org/2000/svg" xmlns:xlink="http://www.w3.org/1999/xlink" x="0px" y="0px"
	 viewBox="0 0 200 200" style="enable-background:new 0 0 200 200;" xml:space="preserve">
<style type="text/css">
	.st0{fill:#010002;}
</style>
<g>
	<g>
		<path class="st0" d="M70.6,104.8c11,4.9,28.2,5.8,28.2,5.8c0.4,0,0.8,0,1.1,0v0c0,0,0,0,0.1,0s0,0,0.1,0v0c0.4,0,0.8,0,1.1,0
			c0,0,17.2-0.9,28.2-5.8c0,0,1.6-0.4,1.6-4c0,0-0.6-15.7-5.3-22.8c0,0-1.2-1.8-4.6-3.1c0,0-11-3.4-11.8-6.2c0,0-3.7,9.5-9.3,9.4
			c-5.6,0.1-9.3-9.4-9.3-9.4c-0.7,2.9-11.8,6.2-11.8,6.2c-3.4,1.2-4.6,3.1-4.6,3.1c-4.8,7.1-5.3,22.8-5.3,22.8
			C69.1,104.4,70.6,104.8,70.6,104.8z"/>
		<path class="st0" d="M87.8,57.4c0.8,6.8,6.7,13.9,12,13.9c6.1,0,11.9-7.4,12.8-13.9c0.3-0.2,0.9-0.8,1.1-2.2c0,0,1.3-4.7-0.4-4.2
			c0.6-1.8,2.6-8.8-1.2-13.1c0,0-1.8-2.5-6.2-3.8c-0.2-0.1-0.3-0.3-0.5-0.4c0,0,0.1,0.1,0.2,0.3c-0.2-0.1-0.5-0.1-0.8-0.2
			c-0.2-0.3-0.5-0.5-0.8-0.8c0,0,0.3,0.3,0.6,0.7c-0.1,0-0.2-0.1-0.3-0.1c-0.2-0.3-0.4-0.6-0.8-0.9c0,0,0.1,0.2,0.3,0.6
			c-0.8-0.6-2.5-2-2.5-3.5c0,0-1,0.5-1.6,1.3c-0.2-0.4,0-0.8,0-0.8c-0.5,0.3-1.7,1.2-2.1,2.6l-0.3-0.5c-0.7-0.8-2-0.2-2-0.2
			s-6.4,2.8-8.3,8.6c0,0-1.1,2.6,0.4,10.3c-2.1-1-0.7,4.1-0.7,4.1C86.9,56.6,87.5,57.2,87.8,57.4z"/>
		<path class="st0" d="M144.3,8.1V0h-13v8.1H68.7V0h-13v8.1H28.6V200h142.7V8.1H144.3z M36.1,192.6v-177h19.6v10.4h13V15.5h62.7
			v10.4h13V15.5h19.6l0,177H36.1z"/>
		<rect x="53.3" y="167.5" class="st0" width="75.6" height="7.5"/>
		<rect x="53.3" y="123.5" class="st0" width="97.8" height="7.5"/>
		<rect x="53.3" y="138.5" class="st0" width="90.4" height="7.5"/>
		<rect x="53.3" y="153.2" class="st0" width="83" height="7.5"/>
	</g>
</g>
</svg>
