<?xml version="1.0" encoding="utf-8"?>
<!-- Generator: Adobe Illustrator 19.2.0, SVG Export Plug-In . SVG Version: 6.00 Build 0)  -->
<svg version="1.1" id="Capa_1" xmlns="http://www.w3.org/2000/svg" xmlns:xlink="http://www.w3.org/1999/xlink" x="0px" y="0px"
	 viewBox="0 0 200 200" style="enable-background:new 0 0 200 200;" xml:space="preserve">
<g>
	<g>
		<path d="M149.4,61.2H50.6c-3.2,0-5.7,2.6-5.7,5.7v19.5c0,3.2,2.6,5.7,5.7,5.7h98.8c3.2,0,5.7-2.6,5.7-5.7V66.9
			C155.1,63.7,152.5,61.2,149.4,61.2z M55.2,74.7c-2,0-3.5-1.6-3.5-3.5c0-1.9,1.6-3.5,3.5-3.5c2,0,3.5,1.6,3.5,3.5
			C58.7,73.2,57.2,74.7,55.2,74.7z M140.1,84.9h-25v-8.3h25L140.1,84.9L140.1,84.9z"/>
		<path d="M149.4,95.2H50.6c-3.2,0-5.7,2.6-5.7,5.7v19.5c0,3.2,2.6,5.7,5.7,5.7h98.8c3.2,0,5.7-2.6,5.7-5.7V101
			C155.1,97.8,152.5,95.2,149.4,95.2z M55.2,108.8c-2,0-3.5-1.6-3.5-3.5c0-1.9,1.6-3.5,3.5-3.5c2,0,3.5,1.6,3.5,3.5
			C58.7,107.2,57.2,108.8,55.2,108.8z M140.1,119h-25v-8.3h25L140.1,119L140.1,119z"/>
		<path d="M149.4,129.3H50.6c-3.2,0-5.7,2.6-5.7,5.7v19.5c0,3.2,2.6,5.7,5.7,5.7h98.8c3.2,0,5.7-2.6,5.7-5.7V135
			C155.1,131.9,152.5,129.3,149.4,129.3z M55.2,142.9c-2,0-3.5-1.6-3.5-3.5c0-2,1.6-3.5,3.5-3.5c2,0,3.5,1.6,3.5,3.5
			C58.7,141.3,57.2,142.9,55.2,142.9z M140.1,153.1h-25v-8.3h25L140.1,153.1L140.1,153.1z"/>
		<polygon points="117.1,178.9 106.5,178.9 106.5,163.5 93.5,163.5 93.5,178.9 82.9,178.9 82.9,182.9 46.1,182.9 46.1,196 82.9,196 
			82.9,200 117.1,200 117.1,196 153.9,196 153.9,182.9 117.1,182.9 		"/>
		<path d="M158.3,29.8c-1.4-0.1-2.7-0.8-3.6-2c-7.9-10.7-20.6-17.3-34.1-17.3c-0.8,0-1.7,0-2.5,0.1c-1.2,0.1-2.3-0.3-3.3-1
			C106.6,3.4,96.6,0,86.2,0c-18.7,0-35.3,10.8-43,27.2c-0.7,1.5-2.1,2.5-3.8,2.8C18.8,32.9,2.8,50.7,2.8,72
			c0,20.4,14.5,37.5,33.7,41.5V101c0-1.6,0.3-3.1,0.8-4.5C27,93.1,19.6,83.4,19.6,72c0-14.2,11.5-25.7,25.7-25.7
			c0.7,0,1.4,0.1,2.1,0.1c4.1,0.3,7.8-2.3,8.8-6.3c3.5-13.8,15.8-23.4,30-23.4c8.1,0,15.8,3.1,21.6,8.8c2,1.9,4.8,2.8,7.5,2.2
			c1.7-0.4,3.5-0.5,5.3-0.5c9.9,0,18.8,5.6,23.1,14.6c1.5,3.2,4.9,5,8.4,4.7c0.9-0.1,1.7-0.1,2.6-0.1c14.2,0,25.7,11.5,25.7,25.7
			c0,11.4-7.4,21.1-17.7,24.4c0.5,1.4,0.8,2.9,0.8,4.5v12.6c19.2-4.1,33.7-21.1,33.7-41.5C197.2,49.9,180,31.6,158.3,29.8z"/>
	</g>
</g>
</svg>
