<?xml version="1.0" encoding="utf-8"?>
<!-- Generator: Adobe Illustrator 19.2.0, SVG Export Plug-In . SVG Version: 6.00 Build 0)  -->
<svg version="1.1" id="Capa_1" xmlns="http://www.w3.org/2000/svg" xmlns:xlink="http://www.w3.org/1999/xlink" x="0px" y="0px"
	 viewBox="0 0 200 200" style="enable-background:new 0 0 200 200;" xml:space="preserve">
<g>
	<path d="M122,182.7c0.3,0,0.5,0,0.8,0h60.6c7.1,0,12.8-5.8,12.8-12.8V29.6c0-7.1-5.8-12.8-12.8-12.8h-60.6c-0.3,0-0.5,0-0.8,0V0
		L3.8,15.8v168L122,200V182.7z M122,24.1c0.3,0,0.5-0.1,0.8-0.1h60.6c3,0,5.5,2.5,5.5,5.5v140.4c0,3-2.5,5.5-5.5,5.5h-60.6
		c-0.3,0-0.5,0-0.8-0.1L122,24.1L122,24.1z M22.9,112c-4-0.1-7.9-1.3-9.8-2.5l1.6-6.9c2.1,1.2,5.3,2.4,8.7,2.5
		c3.7,0.1,5.6-1.5,5.6-4c0-2.4-1.7-3.7-5.9-5.4c-5.8-2.2-9.5-5.6-9.5-11.1c0-6.4,4.9-11.4,13.2-11.6c4-0.1,7,0.7,9.2,1.7l-1.8,7
		c-1.5-0.7-4-1.8-7.5-1.7c-3.5,0.1-5.1,1.8-5.1,3.7c0,2.4,2,3.5,6.6,5.3c6.3,2.5,9.4,6,9.4,11.4C37.4,106.9,32.7,112.3,22.9,112z
		 M76.1,119.8c-5.7-1.9-10.4-3.7-15.6-6.1c-0.9-0.4-1.8-0.6-2.7-0.7c-8.6-0.8-16.5-7.5-16.5-20.1c0-11.6,7.1-20.5,18.5-20.8
		c12-0.3,18.8,8.9,18.8,20c0,9.2-4.3,15.7-9.5,17.9v0.2c3.1,1,6.5,1.8,9.7,2.5L76.1,119.8z M111.3,113.7L84.6,113v-41l9.5-0.2v33.6
		l17.2,0.3V113.7z"/>
	<path d="M59.5,79.2c-5.9,0.1-9.3,6.1-9.3,13.4c-0.1,7.4,3.4,13.2,9.3,13.3c6,0.1,9.5-5.6,9.5-13.5C69,85.1,65.6,79.1,59.5,79.2z"/>
	<path d="M152.1,133.3c14.2,0,25.4-5.1,25.4-11.6v-7.3c0-1-0.3-2.1-0.9-3.1l0,0c0.6-1,0.9-2,0.9-3.1v-7.3c0-1-0.3-2.1-0.9-3.1
		l-0.1-0.1c0.6-1,1-2.1,1-3.2V87c0-1-0.3-2-0.8-3l-0.1-0.1c0.2-0.4,0.3-0.9,0.3-1.4c0-5.9-12.8-9.1-24.8-9.1
		c-12,0-24.8,3.2-24.8,9.1c0,0.5,0.1,0.9,0.3,1.4l-0.1,0.1c-0.5,1-0.8,2-0.8,3v7.3c0,1.1,0.4,2.2,1,3.2l-0.1,0.1
		c-0.6,1-0.9,2.1-0.9,3.1v7.3c0,1.1,0.3,2.1,0.9,3.1l0,0c-0.6,1-0.9,2.1-0.9,3.1v7.3C126.8,128.2,137.9,133.3,152.1,133.3z
		 M129.5,88.2c4.1,3.5,13.5,5.2,22.7,5.2c9.2,0,18.6-1.8,22.7-5.2v6.1c0,4.2-9.3,8.9-22.7,8.9c-13.4,0-22.7-4.7-22.7-8.9V88.2z
		 M129.5,101.2c4.2,3.8,12.7,6.3,22.7,6.3c9.9,0,18.5-2.4,22.7-6.3v6.9c0,4.2-9.3,8.9-22.7,8.9c-13.4,0-22.7-4.7-22.7-8.9V101.2z
		 M129.5,114.8c4.2,3.8,12.7,6.3,22.7,6.3c9.9,0,18.5-2.4,22.7-6.3v6.9c0,4.2-9.3,8.9-22.7,8.9c-13.4,0-22.7-4.7-22.7-8.9V114.8z"/>
</g>
</svg>
